# xmcd
#
# Track frame offsets: 
#        150
#        13828
#        30539
#        44616
#        61789
#        76257
#        93155
#        110319
#        120563
#        134414
#        147826
#        161402
#        171474
#
# Disc length: 2475 seconds
#
# Revision: 1
# Processed by: cddbd v1.5.2PL0 Copyright (c) Steve Scherf et al.
# Submitted via: ExactAudioCopyFreeDBPlugin 1.0
#
DISCID=a509a90d
DTITLE=Bénabar - Les bénéfices du doute
DYEAR=2011
DGENRE=Chanson
TTITLE0=Politiquement correct
TTITLE1=Les Râteaux
TTITLE2=L'Agneau
TTITLE3=La phrase qu'on n'a pas dite
TTITLE4=Alors, c'est ma vie !
TTITLE5=Moins vite
TTITLE6=Les Mirabelles
TTITLE7=Perdre la raison
TTITLE8=Faute de goût
TTITLE9=Après de près
TTITLE10=Différents ?
TTITLE11=Quelle histoire !
TTITLE12=C'est d'l'amour
EXTD=
EXTT0=
EXTT1=
EXTT2=
EXTT3=
EXTT4=
EXTT5=
EXTT6=
EXTT7=
EXTT8=
EXTT9=
EXTT10=
EXTT11=
EXTT12=
PLAYORDER=
